<mxfile host="Electron" modified="2023-12-27T07:52:14.761Z" agent="Mozilla/5.0 (Macintosh; Intel Mac OS X 10_15_7) AppleWebKit/537.36 (KHTML, like Gecko) draw.io/22.1.11 Chrome/114.0.5735.289 Electron/25.9.8 Safari/537.36" etag="K2OXu0s3fPJ7x3rvf6mO" version="22.1.11" type="device">
  <diagram name="페이지-1" id="qGGaKEFKYnPGUtzLzWE1">
    <mxGraphModel dx="1114" dy="2063" grid="1" gridSize="10" guides="1" tooltips="1" connect="1" arrows="1" fold="1" page="1" pageScale="1" pageWidth="827" pageHeight="1169" math="0" shadow="0">
      <root>
        <mxCell id="0" />
        <mxCell id="1" parent="0" />
        <mxCell id="y4C6dsZkT6mTQS0GYSoe-34" value="" style="endArrow=none;html=1;rounded=0;strokeWidth=2;" edge="1" parent="1">
          <mxGeometry width="50" height="50" relative="1" as="geometry">
            <mxPoint x="711" y="490" as="sourcePoint" />
            <mxPoint x="710.5" y="30" as="targetPoint" />
          </mxGeometry>
        </mxCell>
        <mxCell id="y4C6dsZkT6mTQS0GYSoe-33" value="" style="endArrow=none;html=1;rounded=0;strokeWidth=2;" edge="1" parent="1">
          <mxGeometry width="50" height="50" relative="1" as="geometry">
            <mxPoint x="546" y="490" as="sourcePoint" />
            <mxPoint x="545.5" y="30" as="targetPoint" />
          </mxGeometry>
        </mxCell>
        <mxCell id="y4C6dsZkT6mTQS0GYSoe-32" value="" style="endArrow=none;html=1;rounded=0;strokeWidth=2;" edge="1" parent="1">
          <mxGeometry width="50" height="50" relative="1" as="geometry">
            <mxPoint x="396" y="490" as="sourcePoint" />
            <mxPoint x="396" y="30" as="targetPoint" />
          </mxGeometry>
        </mxCell>
        <mxCell id="y4C6dsZkT6mTQS0GYSoe-31" value="" style="endArrow=none;html=1;rounded=0;strokeWidth=2;" edge="1" parent="1">
          <mxGeometry width="50" height="50" relative="1" as="geometry">
            <mxPoint x="306" y="490" as="sourcePoint" />
            <mxPoint x="305.5" y="30" as="targetPoint" />
          </mxGeometry>
        </mxCell>
        <mxCell id="y4C6dsZkT6mTQS0GYSoe-30" value="" style="endArrow=none;html=1;rounded=0;strokeWidth=2;" edge="1" parent="1">
          <mxGeometry width="50" height="50" relative="1" as="geometry">
            <mxPoint x="186" y="490" as="sourcePoint" />
            <mxPoint x="185.5" y="30" as="targetPoint" />
          </mxGeometry>
        </mxCell>
        <mxCell id="y4C6dsZkT6mTQS0GYSoe-29" value="" style="endArrow=none;html=1;rounded=0;strokeWidth=2;" edge="1" parent="1">
          <mxGeometry width="50" height="50" relative="1" as="geometry">
            <mxPoint x="55" y="490" as="sourcePoint" />
            <mxPoint x="55" y="30" as="targetPoint" />
          </mxGeometry>
        </mxCell>
        <mxCell id="y4C6dsZkT6mTQS0GYSoe-7" style="edgeStyle=orthogonalEdgeStyle;rounded=0;orthogonalLoop=1;jettySize=auto;html=1;endArrow=none;endFill=0;" edge="1" parent="1" source="y4C6dsZkT6mTQS0GYSoe-5" target="y4C6dsZkT6mTQS0GYSoe-6">
          <mxGeometry relative="1" as="geometry" />
        </mxCell>
        <mxCell id="y4C6dsZkT6mTQS0GYSoe-8" value="max.block.ms" style="edgeLabel;html=1;align=center;verticalAlign=middle;resizable=0;points=[];fontSize=13;labelBackgroundColor=#DAE8FC;" vertex="1" connectable="0" parent="y4C6dsZkT6mTQS0GYSoe-7">
          <mxGeometry x="-0.74" y="3" relative="1" as="geometry">
            <mxPoint x="37" y="2" as="offset" />
          </mxGeometry>
        </mxCell>
        <mxCell id="y4C6dsZkT6mTQS0GYSoe-5" value="" style="ellipse;whiteSpace=wrap;html=1;aspect=fixed;" vertex="1" parent="1">
          <mxGeometry x="40" y="80" width="30" height="30" as="geometry" />
        </mxCell>
        <mxCell id="y4C6dsZkT6mTQS0GYSoe-13" style="edgeStyle=orthogonalEdgeStyle;rounded=0;orthogonalLoop=1;jettySize=auto;html=1;entryX=0.5;entryY=0;entryDx=0;entryDy=0;endArrow=block;endFill=1;" edge="1" parent="1" source="y4C6dsZkT6mTQS0GYSoe-6" target="y4C6dsZkT6mTQS0GYSoe-9">
          <mxGeometry relative="1" as="geometry" />
        </mxCell>
        <mxCell id="y4C6dsZkT6mTQS0GYSoe-6" value="" style="ellipse;whiteSpace=wrap;html=1;aspect=fixed;fillColor=#e1d5e7;strokeColor=#9673a6;" vertex="1" parent="1">
          <mxGeometry x="170" y="80" width="30" height="30" as="geometry" />
        </mxCell>
        <mxCell id="y4C6dsZkT6mTQS0GYSoe-11" style="edgeStyle=orthogonalEdgeStyle;rounded=0;orthogonalLoop=1;jettySize=auto;html=1;entryX=0;entryY=0.5;entryDx=0;entryDy=0;endArrow=none;endFill=0;" edge="1" parent="1" source="y4C6dsZkT6mTQS0GYSoe-9" target="y4C6dsZkT6mTQS0GYSoe-10">
          <mxGeometry relative="1" as="geometry" />
        </mxCell>
        <mxCell id="y4C6dsZkT6mTQS0GYSoe-12" value="linger.ms" style="edgeLabel;html=1;align=center;verticalAlign=middle;resizable=0;points=[];fontSize=13;labelBackgroundColor=#DAE8FC;" vertex="1" connectable="0" parent="y4C6dsZkT6mTQS0GYSoe-11">
          <mxGeometry x="-0.5778" y="-1" relative="1" as="geometry">
            <mxPoint x="27" y="-2" as="offset" />
          </mxGeometry>
        </mxCell>
        <mxCell id="y4C6dsZkT6mTQS0GYSoe-9" value="" style="ellipse;whiteSpace=wrap;html=1;aspect=fixed;" vertex="1" parent="1">
          <mxGeometry x="170" y="140" width="30" height="30" as="geometry" />
        </mxCell>
        <mxCell id="y4C6dsZkT6mTQS0GYSoe-18" style="edgeStyle=orthogonalEdgeStyle;rounded=0;orthogonalLoop=1;jettySize=auto;html=1;entryX=0.5;entryY=0;entryDx=0;entryDy=0;endArrow=block;endFill=1;" edge="1" parent="1" source="y4C6dsZkT6mTQS0GYSoe-10" target="y4C6dsZkT6mTQS0GYSoe-14">
          <mxGeometry relative="1" as="geometry" />
        </mxCell>
        <mxCell id="y4C6dsZkT6mTQS0GYSoe-10" value="" style="ellipse;whiteSpace=wrap;html=1;aspect=fixed;" vertex="1" parent="1">
          <mxGeometry x="290" y="140" width="30" height="30" as="geometry" />
        </mxCell>
        <mxCell id="y4C6dsZkT6mTQS0GYSoe-16" style="edgeStyle=orthogonalEdgeStyle;rounded=0;orthogonalLoop=1;jettySize=auto;html=1;entryX=0;entryY=0.5;entryDx=0;entryDy=0;endArrow=none;endFill=0;" edge="1" parent="1" source="y4C6dsZkT6mTQS0GYSoe-14" target="y4C6dsZkT6mTQS0GYSoe-15">
          <mxGeometry relative="1" as="geometry" />
        </mxCell>
        <mxCell id="y4C6dsZkT6mTQS0GYSoe-14" value="" style="ellipse;whiteSpace=wrap;html=1;aspect=fixed;" vertex="1" parent="1">
          <mxGeometry x="290" y="200" width="30" height="30" as="geometry" />
        </mxCell>
        <mxCell id="y4C6dsZkT6mTQS0GYSoe-23" style="edgeStyle=orthogonalEdgeStyle;rounded=0;orthogonalLoop=1;jettySize=auto;html=1;entryX=0.5;entryY=0;entryDx=0;entryDy=0;endArrow=block;endFill=1;" edge="1" parent="1" source="y4C6dsZkT6mTQS0GYSoe-15" target="y4C6dsZkT6mTQS0GYSoe-19">
          <mxGeometry relative="1" as="geometry" />
        </mxCell>
        <mxCell id="y4C6dsZkT6mTQS0GYSoe-27" style="edgeStyle=orthogonalEdgeStyle;rounded=0;orthogonalLoop=1;jettySize=auto;html=1;entryX=0.5;entryY=0;entryDx=0;entryDy=0;endArrow=block;endFill=1;curved=1;dashed=1;dashPattern=1 1;" edge="1" parent="1" source="y4C6dsZkT6mTQS0GYSoe-15" target="y4C6dsZkT6mTQS0GYSoe-20">
          <mxGeometry relative="1" as="geometry" />
        </mxCell>
        <mxCell id="y4C6dsZkT6mTQS0GYSoe-15" value="" style="ellipse;whiteSpace=wrap;html=1;aspect=fixed;fillColor=#e1d5e7;strokeColor=#9673a6;" vertex="1" parent="1">
          <mxGeometry x="380" y="200" width="30" height="30" as="geometry" />
        </mxCell>
        <mxCell id="y4C6dsZkT6mTQS0GYSoe-21" style="edgeStyle=orthogonalEdgeStyle;rounded=0;orthogonalLoop=1;jettySize=auto;html=1;entryX=0;entryY=0.5;entryDx=0;entryDy=0;endArrow=none;endFill=0;" edge="1" parent="1" source="y4C6dsZkT6mTQS0GYSoe-19" target="y4C6dsZkT6mTQS0GYSoe-20">
          <mxGeometry relative="1" as="geometry" />
        </mxCell>
        <mxCell id="y4C6dsZkT6mTQS0GYSoe-22" value="retry.backoff.ms" style="edgeLabel;html=1;align=center;verticalAlign=middle;resizable=0;points=[];fontSize=13;labelBackgroundColor=#DAE8FC;" vertex="1" connectable="0" parent="y4C6dsZkT6mTQS0GYSoe-21">
          <mxGeometry x="-0.6" y="1" relative="1" as="geometry">
            <mxPoint x="32" as="offset" />
          </mxGeometry>
        </mxCell>
        <mxCell id="y4C6dsZkT6mTQS0GYSoe-19" value="" style="ellipse;whiteSpace=wrap;html=1;aspect=fixed;" vertex="1" parent="1">
          <mxGeometry x="380" y="260" width="30" height="30" as="geometry" />
        </mxCell>
        <mxCell id="y4C6dsZkT6mTQS0GYSoe-25" style="edgeStyle=orthogonalEdgeStyle;rounded=0;orthogonalLoop=1;jettySize=auto;html=1;entryX=0;entryY=0.5;entryDx=0;entryDy=0;endArrow=none;endFill=0;" edge="1" parent="1" source="y4C6dsZkT6mTQS0GYSoe-20" target="y4C6dsZkT6mTQS0GYSoe-24">
          <mxGeometry relative="1" as="geometry" />
        </mxCell>
        <mxCell id="y4C6dsZkT6mTQS0GYSoe-26" value="request.timeout.ms" style="edgeLabel;html=1;align=center;verticalAlign=middle;resizable=0;points=[];fontSize=13;labelBackgroundColor=#DAE8FC;" vertex="1" connectable="0" parent="y4C6dsZkT6mTQS0GYSoe-25">
          <mxGeometry x="-0.6833" y="4" relative="1" as="geometry">
            <mxPoint x="43" y="3" as="offset" />
          </mxGeometry>
        </mxCell>
        <mxCell id="y4C6dsZkT6mTQS0GYSoe-20" value="" style="ellipse;whiteSpace=wrap;html=1;aspect=fixed;" vertex="1" parent="1">
          <mxGeometry x="530" y="260" width="30" height="30" as="geometry" />
        </mxCell>
        <mxCell id="y4C6dsZkT6mTQS0GYSoe-28" style="edgeStyle=orthogonalEdgeStyle;rounded=0;orthogonalLoop=1;jettySize=auto;html=1;entryX=0.5;entryY=1;entryDx=0;entryDy=0;endArrow=block;endFill=1;curved=1;dashed=1;dashPattern=1 1;" edge="1" parent="1" source="y4C6dsZkT6mTQS0GYSoe-24" target="y4C6dsZkT6mTQS0GYSoe-19">
          <mxGeometry relative="1" as="geometry">
            <Array as="points">
              <mxPoint x="710" y="330" />
              <mxPoint x="395" y="330" />
            </Array>
          </mxGeometry>
        </mxCell>
        <mxCell id="y4C6dsZkT6mTQS0GYSoe-24" value="" style="ellipse;whiteSpace=wrap;html=1;aspect=fixed;fillColor=#e1d5e7;strokeColor=#9673a6;" vertex="1" parent="1">
          <mxGeometry x="695" y="260" width="30" height="30" as="geometry" />
        </mxCell>
        <mxCell id="y4C6dsZkT6mTQS0GYSoe-38" value="send()" style="text;html=1;strokeColor=#b85450;fillColor=#f8cecc;align=center;verticalAlign=middle;whiteSpace=wrap;rounded=0;fontSize=14;" vertex="1" parent="1">
          <mxGeometry x="90" y="420" width="60" height="30" as="geometry" />
        </mxCell>
        <mxCell id="y4C6dsZkT6mTQS0GYSoe-39" value="Batching" style="text;html=1;strokeColor=#b85450;fillColor=#f8cecc;align=center;verticalAlign=middle;whiteSpace=wrap;rounded=0;fontSize=14;" vertex="1" parent="1">
          <mxGeometry x="215" y="420" width="60" height="30" as="geometry" />
        </mxCell>
        <mxCell id="y4C6dsZkT6mTQS0GYSoe-40" value="Await&lt;br&gt;send" style="text;html=1;strokeColor=#b85450;fillColor=#f8cecc;align=center;verticalAlign=middle;whiteSpace=wrap;rounded=0;fontSize=14;" vertex="1" parent="1">
          <mxGeometry x="320" y="420" width="60" height="30" as="geometry" />
        </mxCell>
        <mxCell id="y4C6dsZkT6mTQS0GYSoe-41" value="Retries" style="text;html=1;strokeColor=#b85450;fillColor=#f8cecc;align=center;verticalAlign=middle;whiteSpace=wrap;rounded=0;fontSize=14;" vertex="1" parent="1">
          <mxGeometry x="440" y="420" width="60" height="30" as="geometry" />
        </mxCell>
        <mxCell id="y4C6dsZkT6mTQS0GYSoe-42" value="Inflight" style="text;html=1;strokeColor=#b85450;fillColor=#f8cecc;align=center;verticalAlign=middle;whiteSpace=wrap;rounded=0;fontSize=14;" vertex="1" parent="1">
          <mxGeometry x="600" y="420" width="60" height="30" as="geometry" />
        </mxCell>
        <mxCell id="y4C6dsZkT6mTQS0GYSoe-45" style="edgeStyle=orthogonalEdgeStyle;rounded=0;orthogonalLoop=1;jettySize=auto;html=1;endArrow=block;endFill=1;" edge="1" parent="1" source="y4C6dsZkT6mTQS0GYSoe-43">
          <mxGeometry relative="1" as="geometry">
            <mxPoint x="60" y="5" as="targetPoint" />
          </mxGeometry>
        </mxCell>
        <mxCell id="y4C6dsZkT6mTQS0GYSoe-46" style="edgeStyle=orthogonalEdgeStyle;rounded=0;orthogonalLoop=1;jettySize=auto;html=1;endArrow=block;endFill=1;" edge="1" parent="1" source="y4C6dsZkT6mTQS0GYSoe-43">
          <mxGeometry relative="1" as="geometry">
            <mxPoint x="180" y="5" as="targetPoint" />
          </mxGeometry>
        </mxCell>
        <mxCell id="y4C6dsZkT6mTQS0GYSoe-43" value="1구간" style="text;html=1;strokeColor=#d6b656;fillColor=#fff2cc;align=center;verticalAlign=middle;whiteSpace=wrap;rounded=0;" vertex="1" parent="1">
          <mxGeometry x="90" y="-10" width="60" height="30" as="geometry" />
        </mxCell>
        <mxCell id="y4C6dsZkT6mTQS0GYSoe-47" style="edgeStyle=orthogonalEdgeStyle;rounded=0;orthogonalLoop=1;jettySize=auto;html=1;endArrow=block;endFill=1;" edge="1" parent="1" source="y4C6dsZkT6mTQS0GYSoe-44">
          <mxGeometry relative="1" as="geometry">
            <mxPoint x="190" y="5" as="targetPoint" />
          </mxGeometry>
        </mxCell>
        <mxCell id="y4C6dsZkT6mTQS0GYSoe-48" style="edgeStyle=orthogonalEdgeStyle;rounded=0;orthogonalLoop=1;jettySize=auto;html=1;endArrow=block;endFill=1;" edge="1" parent="1" source="y4C6dsZkT6mTQS0GYSoe-44">
          <mxGeometry relative="1" as="geometry">
            <mxPoint x="710" y="5" as="targetPoint" />
          </mxGeometry>
        </mxCell>
        <mxCell id="y4C6dsZkT6mTQS0GYSoe-44" value="2구간" style="text;html=1;strokeColor=#d6b656;fillColor=#fff2cc;align=center;verticalAlign=middle;whiteSpace=wrap;rounded=0;" vertex="1" parent="1">
          <mxGeometry x="365" y="-10" width="60" height="30" as="geometry" />
        </mxCell>
        <mxCell id="y4C6dsZkT6mTQS0GYSoe-50" value="새 타임아웃&lt;br style=&quot;font-size: 14px;&quot;&gt;delivery.timeout.ms &amp;gt;= linger.ms + retry.backoff.ms + request.timeout.ms" style="rounded=1;whiteSpace=wrap;html=1;fontSize=14;fillColor=#dae8fc;strokeColor=#6c8ebf;" vertex="1" parent="1">
          <mxGeometry x="170" y="340" width="550" height="50" as="geometry" />
        </mxCell>
      </root>
    </mxGraphModel>
  </diagram>
</mxfile>
